<svg version="1.1" id="share_svg" xmlns="http://www.w3.org/2000/svg" xmlns:xlink="http://www.w3.org/1999/xlink" x="0px" y="0px"
	 width="15px" height="15px" viewBox="0 0 15 15" style="enable-background:new 0 0 15 15;" xml:space="preserve">
<path d="M11.25,10.05c-0.475,0-0.9,0.188-1.225,0.481L5.569,7.938C5.6,7.794,5.625,7.65,5.625,7.5S5.6,7.206,5.569,7.063
	l4.406-2.569C10.313,4.806,10.756,5,11.25,5c1.037,0,1.875-0.837,1.875-1.875S12.287,1.25,11.25,1.25S9.375,2.087,9.375,3.125
	c0,0.15,0.025,0.294,0.057,0.438L5.025,6.131C4.688,5.819,4.244,5.625,3.75,5.625c-1.038,0-1.875,0.837-1.875,1.875
	c0,1.037,0.837,1.875,1.875,1.875c0.494,0,0.938-0.193,1.275-0.506l4.45,2.6c-0.031,0.131-0.05,0.269-0.05,0.406
	c0,1.006,0.819,1.825,1.825,1.825s1.825-0.819,1.825-1.825S12.256,10.05,11.25,10.05z"/>
</svg>
